<svg xmlns="http://www.w3.org/2000/svg" viewBox="0 0 100 100">
  <!-- Pretzel background -->
  <rect width="100" height="100" fill="#f5f5f5" rx="8"/>

  <!-- Pretzel shape with brown color -->
  <g transform="translate(50, 50)">
    <!-- Left loop -->
    <path d="M -20 -15 Q -25 -10 -25 0 Q -25 10 -20 15"
          fill="none" stroke="#8B4513" stroke-width="4" stroke-linecap="round"/>

    <!-- Right loop -->
    <path d="M 20 -15 Q 25 -10 25 0 Q 25 10 20 15"
          fill="none" stroke="#8B4513" stroke-width="4" stroke-linecap="round"/>

    <!-- Center twisted section -->
    <path d="M -10 -8 Q -2 -12 0 -8 Q 2 -4 10 -8"
          fill="none" stroke="#8B4513" stroke-width="4" stroke-linecap="round"/>

    <path d="M -10 8 Q -2 12 0 8 Q 2 4 10 8"
          fill="none" stroke="#8B4513" stroke-width="4" stroke-linecap="round"/>

    <!-- Top knot connection -->
    <path d="M -15 -12 Q 0 -20 15 -12"
          fill="none" stroke="#D2691E" stroke-width="3" stroke-linecap="round"/>

    <!-- Salt crystals (dots) -->
    <circle cx="-12" cy="-8" r="1.5" fill="#E6D5C3"/>
    <circle cx="0" cy="-18" r="1.5" fill="#E6D5C3"/>
    <circle cx="12" cy="-8" r="1.5" fill="#E6D5C3"/>
    <circle cx="-18" cy="0" r="1.5" fill="#E6D5C3"/>
    <circle cx="18" cy="0" r="1.5" fill="#E6D5C3"/>
  </g>
</svg>
